<svg width="20" height="20" viewBox="0 0 20 20" fill="none" xmlns="http://www.w3.org/2000/svg">
<path d="M17.0701 2.93C15.2201 0.999998 12.6601 -0.0400016 10.0001 -1.57079e-06C7.34014 -0.0400016 4.79014 0.999998 2.94014 2.93C1.00014 4.78 -0.0398642 7.34 0.000135758 10C-0.0398642 12.66 1.00014 15.21 2.93014 17.06C4.78014 19 7.34014 20.04 10.0001 20C12.6601 20.04 15.2101 19 17.0601 17.07C19.0001 15.22 20.0401 12.66 20.0001 10C20.0401 7.34 19.0001 4.78 17.0701 2.93ZM15.0001 10V16H11.5001V11H8.50014V16H5.00014V10H3.00014L10.0001 3L17.5001 10H15.0001Z" fill="black"/>
</svg>
